<?xml version="1.0" encoding="utf-8"?>
<!-- Generator: Adobe Illustrator 18.0.0, SVG Export Plug-In . SVG Version: 6.00 Build 0)  -->
<!DOCTYPE svg PUBLIC "-//W3C//DTD SVG 1.1//EN" "http://www.w3.org/Graphics/SVG/1.1/DTD/svg11.dtd">
<svg version="1.1" id="Layer_1" xmlns="http://www.w3.org/2000/svg" xmlns:xlink="http://www.w3.org/1999/xlink" x="0px" y="0px"
	 viewBox="0 0 552 69.3" enable-background="new 0 0 552 69.3" xml:space="preserve">
<g>
	<path d="M0.8,66.3l11.7-0.5c0.1-2.7,0-2,0.3-8.2l-0.1-4.8c0-1.5,0-3.6,0.1-7.7V34V23.8V12.4V8.2c0-0.5,0-2.5-0.1-4.4L0,4V2
		c11-0.2,17.5-0.5,23-0.6c5.5-0.1,9.7-0.2,11.9-0.2c14.8,0,23.4,2.5,29.4,8.6c5.5,5.6,8.5,13.3,8.5,21.8c0,13.1-6,24.2-16.8,31.1
		c-6.2,3.9-14.6,5.7-26.4,5.7L9.1,68.1H0.7L0.8,66.3z M23.7,65.7c4.2,0.2,5.7,0.2,7.2,0.2c10.2,0,17.3-2,21.6-6
		c5.1-4.8,7.8-13.4,7.8-25.2c0-11.9-1.9-20.4-5.6-25.1C51,4.9,46,3.4,34.8,3.4c-3.4,0-6,0.1-11,0.4L23.7,65.7z"/>
	<path d="M81.2,65.9h11.6c0.1-2.2,0.1-2.1,0.1-5.3c0.1-2,0.1-4.2,0.1-4.2v-2.2c0.1-6,0-0.7,0.2-15.9c0.1-3.4,0.1-7.1,0.1-11.3v-5.8
		v-3.3v-6.8c0.1-2.5,0.1-3.9,0.1-4.4c0-0.5,0-1.6-0.1-2.8H81.2l0.1-2.1h57.6v20l-1.5,0.2c-2.7-10-5-14.7-8.3-16.3
		c-1.9-0.9-5.7-1.4-11-1.5h-10.2c-0.5,0-2.1,0.1-3.7,0.1l-0.2,28h0.8c7.7,0,10.4-0.4,11.9-1.8c1.3-1.1,2.9-4.7,3.7-8.2h1.5v26.5
		h-1.5c-1.4-7.7-2.7-11.9-4.2-13.2c-0.8-0.7-2.2-1.1-4.1-1.2h-6.2h-2.1l-0.1,31.1c7.4,0.1,7.4,0.1,10.3,0.1
		c19.7,0,19.9-0.1,25.3-19.2l1.3,0.1l-0.1,21.5H80.8L81.2,65.9z"/>
	<path d="M150.9,66.1h10.6c0-3.5,0-2.6,0.1-8.9v-7V38.5V27.4v-9.2v-7.5V6.7V3.9h-11.7V2h19.5c5.1-0.1,9.7-0.1,12.5-0.1
		c12.3,0,18.1,1.1,22.3,4c4,2.8,6.3,7.2,6.3,11.9c0,9.6-9.2,16.6-23.2,17.4c15.2,2,20.1,6.2,20.7,17.6c0.7,11.3,2.1,14.4,7.1,14.4
		c4,0,6.2-2.9,7.8-10.4l1.9,0.5c-2.1,9.2-4.6,12-10.6,12c-4.7,0-9.6-1.8-12.6-4.3c-3.4-2.9-4.3-6-5.1-15.5
		c-0.7-10.4-4-13.1-16.1-13.1c-3.2,0-4.3,0-8.3,0.1v13.1v6.2v2.6c0,0.8,0,1.8,0.1,4.1c0,0.8,0,2,0.1,3.7h10.6l-0.2,2h-31.8V66.1z
		 M172,34.1c1.2-0.1,1.9-0.1,2.3-0.1l6.1,0.2c13.4,0,18.7-4.3,18.7-15.3c0-11.1-4.6-14.9-17.9-14.9c-1.5,0-4.1,0.1-9.2,0.2V34.1z"/>
	<path d="M302.2,24.5h-1.5c-3.4-10.2-5-13.3-8.6-16.6c-3.9-3.5-9.1-5.4-15.2-5.4c-13.7,0-20.4,10.6-20.4,31.8
		c0,21.3,7.4,32.3,21.5,32.3c7.4,0,13-3,14.7-7.8c0.9-2.7,1.2-4.6,1.2-13.8l-12.1,0.1l0.1-2h28.7l-0.1,1.9l-6.7,0.1v8.2
		c0,0.9,0,2.7,0.1,7.7c-2.8,0.4-4.2,0.9-8.1,3c-6.7,3.7-11.9,5.1-18.9,5.1c-18.8,0-33-14.9-33-34.8c0-19.5,14.5-34.5,33.5-34.5
		c6.2,0,11.4,1.1,22.5,4.6l1.3-4l1.3,0.1L302.2,24.5z"/>
	<path d="M316,66.1h10.6c0-3.5,0-2.6,0.1-8.9v-7V38.5V27.4v-9.2v-7.5V6.7V3.9h-11.7V2h19.5c5.1-0.1,9.7-0.1,12.5-0.1
		c12.3,0,18.1,1.1,22.3,4c4,2.8,6.3,7.2,6.3,11.9c0,9.6-9.2,16.6-23.2,17.4c15.2,2,20.1,6.2,20.7,17.6c0.7,11.3,2.1,14.4,7.1,14.4
		c4,0,6.2-2.9,7.8-10.4l1.9,0.5c-2.1,9.2-4.6,12-10.6,12c-4.7,0-9.6-1.8-12.6-4.3c-3.4-2.9-4.3-6-5.1-15.5
		c-0.7-10.4-4-13.1-16.1-13.1c-3.2,0-4.3,0-8.3,0.1v13.1v6.2v2.6c0,0.8,0,1.8,0.1,4.1c0,0.8,0,2,0.1,3.7H348l-0.2,2H316V66.1z
		 M337.1,34.1c1.2-0.1,1.9-0.1,2.3-0.1l6.1,0.2c13.4,0,18.7-4.3,18.7-15.3c0-11.1-4.6-14.9-17.9-14.9c-1.5,0-4.1,0.1-9.2,0.2V34.1z"
		/>
	<path d="M486.6,68.3h-30.2V66h10c0.1-10.5,0.1-9.2,0.2-15.2c0.1-8.9,0.1-10.7,0.1-16.5v-5.6V12.1l-0.1-5.5c0-0.6,0-1.6,0.1-3h-9.2
		V1.5h28.6v2h-8.9c-0.1,2.7-0.1,3-0.1,7c0,1.9,0,4.9-0.1,8.9v6.2l-0.1,3.2v4.1c0,3,0,2.9,0.1,10.2v4.2c0,2.8,0.1,4.2,0.1,4.2
		c0,9.7,0,8.5,0.1,14.6h9.3V68.3z"/>
	<path d="M494.8,66h11.4v-3.4l0.1-5.8v-6.9V38.4V27.3v-3c0-16.1,0-16.5-0.1-20.6h-10.7l0.1-1.8l55.9-0.1l0.5,20.4l-1.8,0.1
		C545.1,4.1,544.9,4,525.2,4c-2.1,0-4.7,0.1-8.2,0.2v29.1c15.3,0,15.2,0,18.3-9c0.1-0.4,0.3-0.9,0.6-1.8l1.5,0.1v27.2l-1.6,0.1
		c-3.2-14.4-3.2-14.4-14-14.4c-1.6,0-2.6,0-4.9,0.1v15.5v10.3c0,0.4,0,2.5-0.1,4.3H528v2.3L494.8,68V66z"/>
	<path d="M446.7,46.5c-5.5,19-5.6,19.2-25.3,19.2c-2.9,0-2.9,0-10.3-0.1l0.1-31.1h2.1h6.2c1.9,0.1,3.3,0.5,4.1,1.2
		c1.5,1.3,2.8,5.5,4.2,13.2h1.5V22.3h-1.5c-0.8,3.5-2.5,7.1-3.7,8.2c-1.5,1.4-4.2,1.8-11.9,1.8h-0.8l0.2-28c1.6,0,3.3-0.1,3.7-0.1
		h10.2c5.3,0.1,9.1,0.6,11,1.5c3.3,1.6,5.6,6.3,8.3,16.3l1.5-0.2v-20h-57.6l-0.1,2.1h12.1c0.1,1.2,0.1,2.3,0.1,2.8
		c0,0.6,0,2-0.1,4.4v6.8v3.3V27c0,4.2,0,7.9-0.1,11.3c-0.2,15.2-0.1,9.9-0.2,15.9v2.2c0,0,0,2.2-0.1,4.2c0,3.2,0,3-0.1,5.3h-8
		l-0.4,2.2h56.1l0.1-21.5L446.7,46.5z"/>
</g>
</svg>
